<?xml version="1.0" standalone="no"?>
<!DOCTYPE svg PUBLIC "-//W3C//DTD SVG 20010904//EN"
        "http://www.w3.org/TR/2001/REC-SVG-20010904/DTD/svg10.dtd">
<svg version="1.0" xmlns="http://www.w3.org/2000/svg"
     width="65.000000pt" height="65.000000pt" viewBox="0 0 225.000000 225.000000"
     preserveAspectRatio="xMidYMid meet">
    <metadata>
        Created by potrace 1.15, written by Peter Selinger 2001-2017
    </metadata>
    <g transform="translate(0.000000,225.000000) scale(0.100000,-0.100000)"
       fill="#000000" stroke="none">
        <path d="M925 1983 c-38 -8 -102 -28 -142 -45 -74 -30 -193 -102 -193 -115 0
-4 37 -44 81 -89 l81 -82 75 39 c177 90 391 92 563 6 35 -18 65 -37 68 -44 2
-7 -29 -44 -68 -84 l-71 -71 -70 22 c-95 31 -218 26 -302 -12 -122 -57 -218
-185 -237 -319 -5 -35 -10 -234 -10 -441 l0 -378 23 -14 c12 -8 63 -28 112
-45 320 -107 659 -28 895 209 117 116 196 259 236 426 24 101 22 296 -5 396
-85 323 -348 577 -663 642 -96 20 -279 20 -373 -1z m747 -559 c40 -73 68 -191
68 -293 0 -173 -58 -311 -184 -436 -139 -139 -275 -191 -473 -183 -155 6 -153
5 -153 138 0 61 4 110 9 110 5 0 26 -6 47 -14 234 -82 499 83 534 332 9 64 -2
153 -27 213 l-16 41 74 74 c40 41 78 73 83 71 5 -2 22 -26 38 -53z"/>
        <path d="M392 1618 c-162 -236 -193 -555 -79 -822 41 -99 145 -256 168 -256 5
0 9 153 9 343 0 385 3 410 69 538 l39 77 -82 81 c-45 44 -84 81 -88 81 -4 0
-20 -19 -36 -42z"/>
    </g>
</svg>
